<?xml version="1.0" standalone="no"?><!DOCTYPE svg PUBLIC "-//W3C//DTD SVG 1.1//EN" "http://www.w3.org/Graphics/SVG/1.1/DTD/svg11.dtd"><svg width="200" height="200" viewBox="0 0 200 200" version="1.1" xmlns="http://www.w3.org/2000/svg" xmlns:xlink="http://www.w3.org/1999/xlink"><defs><style type="text/css"><![CDATA[
@font-face { font-family: ifont; src: url("http://at.alicdn.com/t/font_1442373896_4754455.eot?#iefix") format("embedded-opentype"), url("http://at.alicdn.com/t/font_1442373896_4754455.woff") format("woff"), url("http://at.alicdn.com/t/font_1442373896_4754455.ttf") format("truetype"), url("http://at.alicdn.com/t/font_1442373896_4754455.svg#ifont") format("svg"); }

]]></style></defs><g class="transform-group"><g transform="scale(0.1953125, 0.1953125)"><path d="M855.256 546.84 932.896 546.84 855.256 546.84ZM855.256 546.84 932.896 546.84 855.256 546.84ZM83.36 549.192 160.168 549.192 83.36 549.192ZM83.36 549.192 160.168 549.192 83.36 549.192ZM852.912 549.192 158.184 549.192c-34.008 0-61.592 29.664-61.592 66.288l0 216.064c0 36.624 27.576 66.28 61.592 66.28l3.928 0 0-77.288c0-22.832 17.16-18.256 38.328-18.256l610.208 0c21.184 0 38.368-4.568 38.368 18.256l0 77.288 3.904 0c34.016 0 61.568-29.656 61.568-66.28L914.488 615.488C914.488 578.856 886.928 549.192 852.912 549.192M281.208 753.64c-50.624 0-91.64-40.992-91.64-91.616 0-50.632 41.016-91.664 91.64-91.664s91.664 41.032 91.664 91.664C372.872 712.648 331.832 753.64 281.208 753.64M729.888 753.64c-50.632 0-91.664-40.992-91.664-91.616 0-50.632 41.032-91.664 91.664-91.664 50.6 0 91.64 41.032 91.64 91.664C821.528 712.648 780.496 753.64 729.888 753.64M852.912 549.192 158.184 549.192c-34.008 0-61.592 29.664-61.592 66.288l0 216.064c0 36.624 27.576 66.28 61.592 66.28l3.928 0 0-77.288c0-22.832 17.16-18.256 38.328-18.256l610.208 0c21.184 0 38.368-4.568 38.368 18.256l0 77.288 3.904 0c34.016 0 61.568-29.656 61.568-66.28L914.488 615.488C914.488 578.856 886.928 549.192 852.912 549.192zM281.208 753.64c-50.624 0-91.64-40.992-91.64-91.616 0-50.632 41.016-91.664 91.64-91.664s91.664 41.032 91.664 91.664C372.872 712.648 331.832 753.64 281.208 753.64zM729.888 753.64c-50.632 0-91.664-40.992-91.664-91.616 0-50.632 41.032-91.664 91.664-91.664 50.6 0 91.64 41.032 91.64 91.664C821.528 712.648 780.496 753.64 729.888 753.64zM874.448 807.104 874.448 873.264 874.448 807.104ZM874.448 807.104 874.448 873.264 874.448 807.104ZM137.104 799.048 137.104 873.832 137.104 799.048ZM137.104 799.048 137.104 873.832 137.104 799.048ZM858.096 515.68 160.152 515.68 298.208 201.232 743.04 201.232Z" fill="rgb(0,132,168)"></path></g></g></svg>