<?xml version="1.0" standalone="no"?><!DOCTYPE svg PUBLIC "-//W3C//DTD SVG 1.1//EN" "http://www.w3.org/Graphics/SVG/1.1/DTD/svg11.dtd"><svg width="200" height="200" viewBox="0 0 200 200" version="1.1" xmlns="http://www.w3.org/2000/svg" xmlns:xlink="http://www.w3.org/1999/xlink"><defs><style type="text/css"><![CDATA[
@font-face { font-family: ifont; src: url("http://at.alicdn.com/t/font_1442373896_4754455.eot?#iefix") format("embedded-opentype"), url("http://at.alicdn.com/t/font_1442373896_4754455.woff") format("woff"), url("http://at.alicdn.com/t/font_1442373896_4754455.ttf") format("truetype"), url("http://at.alicdn.com/t/font_1442373896_4754455.svg#ifont") format("svg"); }

]]></style></defs><g class="transform-group"><g transform="scale(0.1953125, 0.1953125)"><path d="M942.54592 149.579776c-42.70592-38.787072-117.57056-61.029376-205.372416-61.029376-65.395712 0-136.781824 11.712512-212.096 34.833408-1.865728 0.58368-3.733504 1.183744-5.202944 1.703936l-5.632 1.579008C299.885568 192.484352 201.988096 305.609728 183.2448 382.84288c-0.305152 1.775616-7.748608 43.693056 10.474496 65.557504 7.175168 8.572928 17.056768 12.932096 29.488128 12.932096 25.253888 0 60.032-17.864704 106.36288-54.616064 1.201152-0.106496 2.330624-0.555008 3.28192-1.327104 1.506304-1.130496 2.38592-2.88768 2.455552-4.754432 1.59744-35.854336 17.722368-69.001216 48.106496-98.77504-7.049216 26.007552-17.542144 70.902784-17.937408 108.012544-0.034816 3.137536 2.205696 5.865472 5.326848 6.383616 16.574464 2.762752 37.199872 6.207488 58.078208 6.207488 58.902528 0 100.174848-28.572672 126.1312-87.332864 0.39424-0.878592 0.590848-1.847296 0.534528-2.816l-3.802112-101.690368 49.50528 82.765824c0.521216 0.862208 1.238016 1.59744 2.116608 2.116608 28.41088 17.811456 56.516608 26.832896 83.547136 26.832896 49.845248 0 88.283136-30.169088 119.296-59.692032 2.29376-2.17088 2.671616-5.686272 0.86016-8.2688-21.165056-30.491648-55.026688-61.7728-75.440128-79.377408 41.827328 7.631872 73.806848 26.005504 95.207424 54.821888 1.112064 1.507328 3.226624 2.079744 5.0944 2.205696 0.789504 0.07168 1.685504-0.106496 2.510848-0.43008 14.22336 1.076224 27.764736 2.043904 39.458816 1.632256 54.221824 0 85.142528-10.832896 94.472192-33.120256C981.255168 189.42464 944.3584 151.426048 942.54592 149.579776zM542.224384 96.765952c-4.806656-15.765504-21.505024-24.598528-37.21728-19.756032-15.71328 4.798464-24.55552 21.469184-19.73248 37.226496L542.224384 96.765952zM630.90176 400.223232c-4.124672-13.505536-18.439168-21.0944-31.94368-16.93184-13.489152 4.143104-21.021696 18.439168-16.914432 31.926272l159.471616 519.760896c3.372032 10.994688 13.452288 18.079744 24.42752 18.079744 2.475008 0 5.005312-0.359424 7.481344-1.130496 13.504512-4.14208 21.10976-18.43712 16.965632-31.941632L630.90176 400.223232zM632.390656 764.17024c-9.274368-10.65472-25.399296-11.8016-36.051968-2.52928-0.161792 0.159744-3.463168 2.885632-9.076736 7.013376l-107.097088 32.017408L108.539904 513.850368c-0.806912-1.937408-1.667072-3.748864-2.475008-5.704704-4.860928-11.784192-17.577984-17.882112-29.630464-14.94016-6.189056-0.412672-12.376064 2.169856-16.43008 7.406592-3.999744 5.16608-4.931584 11.730944-3.085312 17.506304 0.03584 3.211264 0.610304 6.474752 1.938432 9.613312 69.880832 168.5504 156.188672 276.456448 257.045504 322.049024l-198.5024 59.333632c-10.116096 3.03104-15.89248 13.719552-12.86144 23.855104 2.510848 8.322048 10.098688 13.684736 18.368512 13.684736 1.828864 0 3.67616-0.249856 5.48864-0.805888L381.0304 870.335488c16.46592 2.961408 32.500736 4.340736 47.997952 4.340736 25.792512 0 49.916928-3.76832 72.03328-9.45152l100.33664 77.431808c3.477504 2.690048 7.604224 3.997696 11.69408 3.997696 5.723136 0 11.40736-2.56512 15.192064-7.460864 6.457344-8.37632 4.896768-20.412416-3.479552-26.887168l-79.99488-61.718528c50.471936-20.913152 82.579456-48.19456 85.036032-50.36544C640.51712 790.966272 641.645568 774.823936 632.390656 764.17024zM378.842112 817.728512c-89.055232-20.950016-167.903232-97.770496-235.147264-228.294656l291.233792 224.761856-27.029504 8.071168C398.373888 821.368832 388.706304 820.06016 378.842112 817.728512z" fill="rgb(122,182,245)"></path></g></g></svg>