<?xml version="1.0" standalone="no"?><!DOCTYPE svg PUBLIC "-//W3C//DTD SVG 1.1//EN" "http://www.w3.org/Graphics/SVG/1.1/DTD/svg11.dtd"><svg width="200" height="200" viewBox="0 0 200 200" version="1.1" xmlns="http://www.w3.org/2000/svg" xmlns:xlink="http://www.w3.org/1999/xlink"><defs><style type="text/css"><![CDATA[
@font-face { font-family: ifont; src: url("http://at.alicdn.com/t/font_1442373896_4754455.eot?#iefix") format("embedded-opentype"), url("http://at.alicdn.com/t/font_1442373896_4754455.woff") format("woff"), url("http://at.alicdn.com/t/font_1442373896_4754455.ttf") format("truetype"), url("http://at.alicdn.com/t/font_1442373896_4754455.svg#ifont") format("svg"); }

]]></style></defs><g class="transform-group"><g transform="scale(0.1953125, 0.1953125)"><path d="M525.473361 51.172473c219.267912 0 397.021316 177.75238 397.021316 397.021316 0 219.267912-177.75238 397.020292-397.021316 397.020292S128.453069 667.461701 128.453069 448.192765C128.453069 228.92383 306.204425 51.172473 525.473361 51.172473zM774.593162 312.140113l-1.588171-13.228279-13.326517-0.518816c-2.059915-0.075725-50.559513-2.609431-57.128115-59.890019l-1.098008-9.55154-9.032724-3.324722c-159.818939-58.792011-159.673629-58.716286-164.013471-58.792011l-4.469801 0-2.465145 1.541099c-5.331425 1.968841-31.110555 11.489682-155.4924 57.250912l-9.031701 3.325745-1.099031 9.550517c-6.385431 55.634088-52.046377 59.616796-57.127092 59.891042l-13.32754 0.518816-1.589195 13.228279c-0.37146 3.143597-34.353412 314.585815 235.103576 417.641959l2.701528 1.038656 15.189957 0 2.702552-1.038656C808.934295 626.726951 774.969739 315.284733 774.593162 312.140113L774.593162 312.140113zM530.999215 699.56998l-3.594875 0c-101.562117-39.702234-168.211073-115.568109-198.094684-225.505987-17.448394-64.190975-16.731056-122.235972-15.387455-146.374742 26.260084-5.936199 61.948911-26.444279 71.485101-75.911924 96.77816-35.613102 130.987287-48.186466 143.500275-52.901861 10.007935 3.63069 41.998533 15.350616 144.078443 52.901861 9.533121 49.454342 45.210691 69.960375 71.469752 75.911924C747.425406 382.849548 746.532059 615.236246 530.999215 699.56998L530.999215 699.56998zM529.198196 264.016069l-49.897434 101.087303-111.569028 16.220427 80.732719 78.688153-19.059078 111.11161 99.793844-52.459792 99.789751 52.459792-19.059078-111.11161 80.734766-78.688153-111.568005-16.220427L529.198196 264.016069z" fill="rgb(230,0,0)"></path></g></g></svg>