<?xml version="1.0" standalone="no"?><!DOCTYPE svg PUBLIC "-//W3C//DTD SVG 1.1//EN" "http://www.w3.org/Graphics/SVG/1.1/DTD/svg11.dtd"><svg width="200" height="200" viewBox="0 0 200 200" version="1.1" xmlns="http://www.w3.org/2000/svg" xmlns:xlink="http://www.w3.org/1999/xlink"><defs><style type="text/css"><![CDATA[
@font-face { font-family: ifont; src: url("http://at.alicdn.com/t/font_1442373896_4754455.eot?#iefix") format("embedded-opentype"), url("http://at.alicdn.com/t/font_1442373896_4754455.woff") format("woff"), url("http://at.alicdn.com/t/font_1442373896_4754455.ttf") format("truetype"), url("http://at.alicdn.com/t/font_1442373896_4754455.svg#ifont") format("svg"); }

]]></style></defs><g class="transform-group"><g transform="scale(0.1953125, 0.1953125)"><path d="M419.404604 290.453185 590.583265 65.120137 761.761925 290.453185ZM312.123228 524.108782 590.583265 157.556409 869.043301 524.108782ZM222.356762 748.069577 590.583265 263.35092 958.81079 748.069577ZM546.199405 622.075001l88.768743 0 0 336.463078-88.768743 0 0-336.463078ZM358.493326 797.908682l70.78516 0 0 131.427308-70.78516 0 0-131.427308ZM214.971561 547.911908 377.482819 333.988724 313.19156 333.988724 434.521906 174.275185 399.128815 127.686101 242.4064 333.988724 306.696636 333.988724 144.185378 547.911908ZM217.767234 547.911908 61.999564 752.957911 132.785747 752.957911 288.553417 547.911908Z" fill="rgb(56,168,0)"></path></g></g></svg>