<?xml version="1.0" standalone="no"?><!DOCTYPE svg PUBLIC "-//W3C//DTD SVG 1.1//EN" "http://www.w3.org/Graphics/SVG/1.1/DTD/svg11.dtd"><svg width="200" height="200" viewBox="0 0 200 200" version="1.1" xmlns="http://www.w3.org/2000/svg" xmlns:xlink="http://www.w3.org/1999/xlink"><defs><style type="text/css"><![CDATA[
@font-face { font-family: ifont; src: url("http://at.alicdn.com/t/font_1442373896_4754455.eot?#iefix") format("embedded-opentype"), url("http://at.alicdn.com/t/font_1442373896_4754455.woff") format("woff"), url("http://at.alicdn.com/t/font_1442373896_4754455.ttf") format("truetype"), url("http://at.alicdn.com/t/font_1442373896_4754455.svg#ifont") format("svg"); }

]]></style></defs><g class="transform-group"><g transform="scale(0.1953125, 0.1953125)"><path d="M969.6 781.312 969.6 510.016l-220.736-95.872 0 367.168L728.96 781.312l0-579.2L401.792 202.112l0 579.2L381.504 781.312 381.504 349.056 54.336 461.952l0 319.36L21.44 781.312l0 69.12 981.12 0 0-69.12L969.6 781.312zM229.952 742.4 172.736 742.4l0-55.808 57.28 0L230.016 742.4zM229.952 668.352 172.736 668.352 172.736 612.544l57.28 0L230.016 668.352zM229.952 590.272 172.736 590.272 172.736 534.464l57.28 0L230.016 590.272zM229.952 516.288 172.736 516.288 172.736 460.416l57.28 0L230.016 516.288zM315.392 742.4 258.176 742.4l0-55.808 57.216 0L315.392 742.4zM315.392 668.352 258.176 668.352 258.176 612.544l57.216 0L315.392 668.352zM315.392 590.272 258.176 590.272 258.176 534.464l57.216 0L315.392 590.272zM315.392 516.288 258.176 516.288 258.176 460.416l57.216 0L315.392 516.288zM549.44 728.768 456.192 728.768 456.192 637.76l93.248 0L549.44 728.768zM549.44 608.192 456.192 608.192 456.192 517.184l93.248 0L549.44 608.192zM549.44 480.768 456.192 480.768 456.192 389.824l93.248 0L549.44 480.768zM549.44 360.256 456.192 360.256 456.192 269.248l93.248 0L549.44 360.256zM674.56 728.768 581.312 728.768 581.312 637.76l93.248 0L674.56 728.768zM674.56 608.192 581.312 608.192 581.312 517.184l93.248 0L674.56 608.192zM674.56 480.768 581.312 480.768 581.312 389.824l93.248 0L674.56 480.768zM674.56 360.256 581.312 360.256 581.312 269.248l93.248 0L674.56 360.256zM843.2 735.424 785.92 735.424l0-55.872 57.28 0L843.2 735.424zM843.2 657.28 785.92 657.28 785.92 601.408l57.28 0L843.2 657.28zM843.2 583.232 785.92 583.232 785.92 527.424l57.28 0L843.2 583.232zM928.576 735.424l-57.28 0 0-55.872 57.28 0L928.576 735.424zM928.576 657.28l-57.28 0L871.296 601.408l57.28 0L928.576 657.28zM928.576 583.232l-57.28 0L871.296 527.424l57.28 0L928.576 583.232z" fill="rgb(178,178,178)"></path></g></g></svg>