<?xml version="1.0" standalone="no"?><!DOCTYPE svg PUBLIC "-//W3C//DTD SVG 1.1//EN" "http://www.w3.org/Graphics/SVG/1.1/DTD/svg11.dtd"><svg width="200" height="200" viewBox="0 0 200 200" version="1.1" xmlns="http://www.w3.org/2000/svg" xmlns:xlink="http://www.w3.org/1999/xlink"><defs><style type="text/css"><![CDATA[
@font-face { font-family: ifont; src: url("http://at.alicdn.com/t/font_1442373896_4754455.eot?#iefix") format("embedded-opentype"), url("http://at.alicdn.com/t/font_1442373896_4754455.woff") format("woff"), url("http://at.alicdn.com/t/font_1442373896_4754455.ttf") format("truetype"), url("http://at.alicdn.com/t/font_1442373896_4754455.svg#ifont") format("svg"); }

]]></style></defs><g class="transform-group"><g transform="scale(0.1953125, 0.1953125)"><path d="M875.296 834.8l0-43.216-36.96 0L838.336 370.192l50.624 0 0-49.344-349.776-130.976L484.48 189.872 134.704 320.848l0 49.344 50.64 0 0 421.392L148.352 791.584l0 43.216L89.2 834.8l0 43.232 845.264 0 0-43.232L875.296 834.8zM618.256 546.8l0 38.704-83.184 0 0 44.064 83.184 0 0 38.704-83.184 0 0 96.256-46.448 0 0-96.256-83.2 0 0-38.704 83.2 0 0-44.064-83.2 0 0-38.704 78.112 0-126.992-162.384 56.736 0 98.544 123.536 98.56-123.536 56.736 0-127.008 162.384L618.256 546.8z" fill="rgb(178,178,178)"></path></g></g></svg>