<?xml version="1.0" standalone="no"?><!DOCTYPE svg PUBLIC "-//W3C//DTD SVG 1.1//EN" "http://www.w3.org/Graphics/SVG/1.1/DTD/svg11.dtd"><svg width="200" height="200" viewBox="0 0 200 200" version="1.1" xmlns="http://www.w3.org/2000/svg" xmlns:xlink="http://www.w3.org/1999/xlink"><defs><style type="text/css"><![CDATA[
@font-face { font-family: ifont; src: url("http://at.alicdn.com/t/font_1442373896_4754455.eot?#iefix") format("embedded-opentype"), url("http://at.alicdn.com/t/font_1442373896_4754455.woff") format("woff"), url("http://at.alicdn.com/t/font_1442373896_4754455.ttf") format("truetype"), url("http://at.alicdn.com/t/font_1442373896_4754455.svg#ifont") format("svg"); }

]]></style></defs><g class="transform-group"><g transform="scale(0.1953125, 0.1953125)"><path d="M332.591211 135.083581c-20.451612 18.702967-30.851899 46.495964-30.851899 82.532715 0 0 0 102.284571 0 184.145997-2.681172 36.124755-19.374027 66.218144-43.278416 95.118358-9.862006 11.94403-20.946913 23.713075-32.804448 35.571147-8.361778 8.331759-17.072517 16.751522-26.030906 25.3739C133.914313 621.012809 59.448339 692.620707 59.448339 814.278511c0 99.865475 56.344525 164.394141 143.541972 164.394141 57.407783 0 153.708935-27.151383 153.708935-209.025641 0 0 0-112.36516 0-237.19726l0-34.579563c-6.059244 12.555967-14.275706 24.353664-22.520822 34.579563-16.167877 20.072151-32.440136 33.765011-32.440136 33.765011 0 108.837824 0 203.432249 0 203.432249 0 102.226243-33.22709 154.080238-98.749001 154.080238-79.957259 0-88.609668-76.531024-88.609668-109.449761 0-98.262978 59.912939-155.887396 123.322659-216.862119 21.719541-20.889773 43.685708-42.067095 62.768081-64.965617 0.43697-0.496304 0.859612-0.959861 1.267928-1.457188 5.03999-6.233981 15.703277-17.129122 26.308234-34.113959 14.377018-22.926152 28.652724-57.012482 28.652724-106.013499l0-51.972699 47.080154 0 0-54.94438-47.080154 0 0-22.460548 47.080154 0 0-54.943356-46.555176 0c1.12159-11.215436 4.311366-23.189142 12.075508-30.53034 9.571375-9.030677 23.234096-8.390088 23.350758-8.390088l11.128911 0.086981 0.203646-54.827723-8.491743-0.115634C387.536819 112.330368 357.42787 112.448048 332.591211 135.083581zM908.330961 374.669238c0 20.97573-16.955855 37.929868-37.962122 37.929868L519.905876 412.599106c-20.946913 0-37.946772-16.95516-37.946772-37.929868l0-88.35942-56.182836 0L425.776269 890.63455c0 41.922808 34.013022 75.949786 75.922198 75.949786l386.880853 0c41.952156 0 75.980528-34.026978 75.980528-75.949786L964.559847 286.309818l-56.227863 0L908.331985 374.669238zM888.579319 45.326325 501.697443 45.326325c-41.909176 0-75.922198 34.026978-75.922198 75.919087l0 143.099139 56.182836 0 0-88.329744c0-20.97573 16.999859-37.989219 37.946772-37.989219l350.463986 0c21.005244 0 37.962122 17.013489 37.962122 37.989219l0 88.329744 56.227863 0 0-143.099139C964.559847 79.353302 930.531475 45.326325 888.579319 45.326325z" fill="rgb(245,162,122)"></path></g></g></svg>