<?xml version="1.0" standalone="no"?><!DOCTYPE svg PUBLIC "-//W3C//DTD SVG 1.1//EN" "http://www.w3.org/Graphics/SVG/1.1/DTD/svg11.dtd"><svg width="200" height="200" viewBox="0 0 200 200" version="1.1" xmlns="http://www.w3.org/2000/svg" xmlns:xlink="http://www.w3.org/1999/xlink"><defs><style type="text/css"><![CDATA[
@font-face { font-family: ifont; src: url("http://at.alicdn.com/t/font_1442373896_4754455.eot?#iefix") format("embedded-opentype"), url("http://at.alicdn.com/t/font_1442373896_4754455.woff") format("woff"), url("http://at.alicdn.com/t/font_1442373896_4754455.ttf") format("truetype"), url("http://at.alicdn.com/t/font_1442373896_4754455.svg#ifont") format("svg"); }

]]></style></defs><g class="transform-group"><g transform="scale(0.1953125, 0.1953125)"><path d="M814.353408 305.340416 677.722112 305.340416l0-91.851776c0-25.253888-20.501504-45.929472-45.548544-45.929472l-182.15936 0c-25.03168 0-45.548544 20.68992-45.548544 45.929472l0 91.851776L267.83744 305.340416c-50.10432 0-91.081728 41.321472-91.081728 91.844608l0 367.407104c0 50.511872 40.96512 91.84768 91.081728 91.84768l546.470912 0c50.098176 0 91.077632-41.320448 91.077632-91.84768L905.385984 397.185024c0.004096-50.516992-40.953856-91.844608-91.02848-91.844608L814.353408 305.340416zM450.051072 213.489664l182.15936 0 0 91.848704-182.15936 0L450.051072 213.489664 450.051072 213.489664zM723.304448 626.82624 586.678272 626.82624l0 137.746432-91.081728 0L495.596544 626.82624 358.96832 626.82624l0-91.8528 136.6272 0L495.59552 397.177856l91.081728 0 0 137.795584 136.626176 0L723.303424 626.82624 723.304448 626.82624zM723.304448 626.82624" fill="rgb(130,0,0)"></path></g></g></svg>