<?xml version="1.0" standalone="no"?><!DOCTYPE svg PUBLIC "-//W3C//DTD SVG 1.1//EN" "http://www.w3.org/Graphics/SVG/1.1/DTD/svg11.dtd"><svg width="200" height="200" viewBox="0 0 200 200" version="1.1" xmlns="http://www.w3.org/2000/svg" xmlns:xlink="http://www.w3.org/1999/xlink"><defs><style type="text/css"><![CDATA[
@font-face { font-family: ifont; src: url("http://at.alicdn.com/t/font_1442373896_4754455.eot?#iefix") format("embedded-opentype"), url("http://at.alicdn.com/t/font_1442373896_4754455.woff") format("woff"), url("http://at.alicdn.com/t/font_1442373896_4754455.ttf") format("truetype"), url("http://at.alicdn.com/t/font_1442373896_4754455.svg#ifont") format("svg"); }

]]></style></defs><g class="transform-group"><g transform="scale(0.2, 0.2)"><path d="M868.043 892.5781H131.958984375c-6.6445 0-12.3965-2.4277-17.252-7.2832S107.4219 874.6875 107.4219 868.043V328.248046875c0-6.6445 2.4277-12.3965 7.2832-17.252s10.6074-7.2832 17.252-7.2832H303.7109375V131.958984375c0-6.6445 2.4277-12.3965 7.2832-17.252S321.6016 107.4219 328.248 107.4219h147.216796875c6.6445 0 12.3965 2.4277 17.252 7.2832S500 125.3125 500 131.959v220.826171875h49.072265625v-73.609375c0-6.6445 2.4297-12.3965 7.2832-17.252s10.6055-7.2832 17.252-7.2832h24.537109375c0-15.8457 4.5996-30.0313 13.8008-42.5547s21.2129-21.3418 36.0371-26.4531c1.0215-22.4922 3.834-41.1484 8.4336-55.9727S666.1309 107.4219 671.7539 107.4219s10.7344 7.4121 15.3359 22.2363 7.4121 33.4824 8.4336 55.9727c14.8242 5.1113 26.8359 13.9297 36.0371 26.4531s13.8008 26.709 13.8008 42.5547h24.537109375c6.6445 0 12.3965 2.4277 17.252 7.2832s7.2832 10.6074 7.2832 17.252V500h73.609375c6.6445 0 12.3965 2.4297 17.252 7.2832s7.2832 10.6055 7.2832 17.252v343.505859375c0 6.6445-2.4277 12.3965-7.2832 17.252S874.6875 892.5781 868.043 892.5781zM205.5664 352.7832H156.494140625v49.072265625h49.072265625V352.783203125zM205.5664 450.9277H156.494140625V500h49.072265625V450.927734375zM205.5664 647.2168H156.494140625V696.2890625h49.072265625V647.216796875zM303.7109 352.7832h-49.072265625v49.072265625H303.7109375V352.783203125zM303.7109 549.0723h-49.072265625v49.072265625H303.7109375V549.072265625zM352.7832 794.4336h49.072265625v-49.072265625h-49.072265625V794.43359375zM352.7832 696.2891h49.072265625v-49.072265625h-49.072265625V696.2890625zM401.8555 156.4941h-49.072265625v49.072265625h49.072265625V156.494140625zM450.9277 254.6387H401.85546875V303.7109375h49.072265625V254.638671875zM450.9277 352.7832H401.85546875v49.072265625h49.072265625V352.783203125zM450.9277 549.0723H401.85546875v49.072265625h49.072265625V549.072265625zM549.0723 401.8555H500v49.072265625h49.072265625V401.85546875zM549.0723 500H500v49.072265625h49.072265625V500zM549.0723 696.2891H500v49.072265625h49.072265625V696.2890625zM647.2168 352.7832H598.14453125v49.072265625h49.072265625V352.783203125zM647.2168 450.9277H598.14453125V500h49.072265625V450.927734375zM647.2168 696.2891H598.14453125v49.072265625h49.072265625V696.2890625zM745.3613 401.8555H696.2890625v49.072265625h49.072265625V401.85546875zM745.3613 598.1445H696.2890625v49.072265625h49.072265625V598.14453125zM745.3613 745.3613H696.2890625v49.072265625h49.072265625V745.361328125zM843.5059 549.0723H794.43359375v49.072265625h49.072265625V549.072265625zM843.5059 647.2168H794.43359375V696.2890625h49.072265625V647.216796875zM843.5059 745.3613H794.43359375v49.072265625h49.072265625V745.361328125z" fill="rgb(130,130,130)"></path></g></g></svg>