<?xml version="1.0" standalone="no"?><!DOCTYPE svg PUBLIC "-//W3C//DTD SVG 1.1//EN" "http://www.w3.org/Graphics/SVG/1.1/DTD/svg11.dtd"><svg width="200" height="200" viewBox="0 0 200 200" version="1.1" xmlns="http://www.w3.org/2000/svg" xmlns:xlink="http://www.w3.org/1999/xlink"><defs><style type="text/css"><![CDATA[
@font-face { font-family: ifont; src: url("http://at.alicdn.com/t/font_1442373896_4754455.eot?#iefix") format("embedded-opentype"), url("http://at.alicdn.com/t/font_1442373896_4754455.woff") format("woff"), url("http://at.alicdn.com/t/font_1442373896_4754455.ttf") format("truetype"), url("http://at.alicdn.com/t/font_1442373896_4754455.svg#ifont") format("svg"); }

]]></style></defs><g class="transform-group"><g transform="scale(0.1953125, 0.1953125)"><path d="M952.32 952.32 952.32 291.84 952.32 220.16l-363.52 0 0 71.68 0 660.48L512 952.32 512 71.68 512 0 440.32 0 363.52 0 291.84 0 148.48 0 71.68 0l0 71.68 0 148.48 0 71.68 0 148.48L71.68 512l0 148.48 0 71.68 0 148.48 0 71.68L0 952.32 0 1024l71.68 0 71.68 0 148.48 0 71.68 0 71.68 0L512 1024l71.68 0 71.68 0 71.68 0 71.68 0 71.68 0 71.68 0L1024 1024l0-71.68L952.32 952.32zM291.84 875.52 148.48 875.52l0-148.48 148.48 0L296.96 875.52zM291.84 660.48 148.48 660.48 148.48 512l148.48 0L296.96 660.48zM291.84 440.32 148.48 440.32 148.48 291.84l148.48 0L296.96 440.32zM291.84 220.16 148.48 220.16 148.48 71.68l148.48 0L296.96 220.16zM440.32 952.32 363.52 952.32l0-71.68 0-148.48 0-71.68L363.52 512 363.52 440.32 363.52 291.84 363.52 220.16 363.52 71.68l71.68 0L435.2 952.32zM875.52 952.32l-71.68 0L803.84 291.84l71.68 0L875.52 952.32z" fill="rgb(38,115,0)"></path></g></g></svg>