<?xml version="1.0" standalone="no"?><!DOCTYPE svg PUBLIC "-//W3C//DTD SVG 1.1//EN" "http://www.w3.org/Graphics/SVG/1.1/DTD/svg11.dtd"><svg width="200" height="200" viewBox="0 0 200 200" version="1.1" xmlns="http://www.w3.org/2000/svg" xmlns:xlink="http://www.w3.org/1999/xlink"><defs><style type="text/css"><![CDATA[
@font-face { font-family: ifont; src: url("http://at.alicdn.com/t/font_1442373896_4754455.eot?#iefix") format("embedded-opentype"), url("http://at.alicdn.com/t/font_1442373896_4754455.woff") format("woff"), url("http://at.alicdn.com/t/font_1442373896_4754455.ttf") format("truetype"), url("http://at.alicdn.com/t/font_1442373896_4754455.svg#ifont") format("svg"); }

]]></style></defs><g class="transform-group"><g transform="scale(0.1953125, 0.1953125)"><path d="M922.218384 668.756183 570.602188 668.756183l0 312.546366c0 21.576411-17.494443 39.069831-39.069831 39.069831l-39.067784 0c-21.574365 0-39.068807-17.493419-39.068807-39.069831L453.395766 668.756183 101.780593 668.756183c-21.574365 0-39.068807-17.494443-39.068807-39.068807l0-39.069831c0-21.574365 17.493419-39.067784 39.068807-39.067784l351.615173 0L453.395766 434.344363l-273.478582 0c-21.575388 0-39.068807-17.492396-39.068807-39.068807l0-39.067784c0-21.576411 17.493419-39.068807 39.068807-39.068807l272.143167 0L228.98267 94.060259c-14.612813-14.631232-14.612813-38.343283 0-52.974515l26.496467-26.497491c14.632255-14.612813 38.343283-14.612813 52.975539 0L512.151961 218.304981 714.667328 15.770172c14.573927-14.573927 38.210253-14.573927 52.765761 0l26.402323 26.383904c14.57188 14.573927 14.57188 38.20923 0 52.78418l-222.221174 222.201731 272.467555 0c21.575388 0 39.067784 17.492396 39.067784 39.068807l0 39.067784c0 21.576411-17.492396 39.068807-39.067784 39.068807l-273.478582 0 0 117.205399 351.615173 0c21.575388 0 39.067784 17.493419 39.067784 39.067784l0 39.069831C961.286168 651.261741 943.793772 668.756183 922.218384 668.756183z" fill="rgb(255,85,0)"></path></g></g></svg>