<?xml version="1.0" standalone="no"?><!DOCTYPE svg PUBLIC "-//W3C//DTD SVG 1.1//EN" "http://www.w3.org/Graphics/SVG/1.1/DTD/svg11.dtd"><svg width="200" height="200" viewBox="0 0 200 200" version="1.1" xmlns="http://www.w3.org/2000/svg" xmlns:xlink="http://www.w3.org/1999/xlink"><defs><style type="text/css"><![CDATA[
@font-face { font-family: ifont; src: url("http://at.alicdn.com/t/font_1442373896_4754455.eot?#iefix") format("embedded-opentype"), url("http://at.alicdn.com/t/font_1442373896_4754455.woff") format("woff"), url("http://at.alicdn.com/t/font_1442373896_4754455.ttf") format("truetype"), url("http://at.alicdn.com/t/font_1442373896_4754455.svg#ifont") format("svg"); }

]]></style></defs><g class="transform-group"><g transform="scale(0.1953125, 0.1953125)"><path d="M517.450864 76.833923c332.51139-10.344602 570.725344 396.289652 356.087284 676.538427 22.661021 22.659069 45.319995 45.318138 67.978969 67.977207 0 1.12666 0 2.181689 0 3.237741 0 3.235694 0 6.474458 0 9.710153-34.480692 36.733623-69.035065 73.396637-103.588414 110.058628-4.292945 0-8.584867 0-12.948424 0-12.386606-22.799262-50.106194-64.528666-77.69259-71.214948-81.069639 76.774571-289.513372 96.127338-414.35468 45.318138-39.90239-20.478404-79.874368-40.953737-119.774712-61.502749-1.056095 1.12666-2.181778 2.180666-3.23685 3.236718 1.477715 54.04387-16.326496 59.815317-42.083145 84.161818C91.694039 959.979918 35.887795 894.113791 93.382563 821.35058c21.603902-5.348821 43.138217-10.766205 64.743143-16.183588-3.23685-3.237741-6.474724-6.474458-9.711574-9.712199-14.849805-27.161616-41.732137-39.125089-48.557869-74.452689 27.163753-18.857487 42.012534-55.591109 74.454716-67.976184 37.860811 79.658248 364.250532 215.895095 466.150422 97.109712-93.875817-92.749404-187.754704-185.565323-281.632568-278.383288-17.242393 15.129582-34.55335 30.224372-51.794719 45.318138-6.896343 12.245905-18.085631 21.181415-29.134721 29.134551-3.23685 0-6.474724 0-9.711574 0-39.90239-40.9916-79.873345-81.982176-119.774712-123.007545 74.454716-75.507718 148.909433-151.049205 223.364149-226.591715 59.04207 8.515954 89.443696 2.955308 142.434709-16.184611 20.479243 22.659069 41.028073 45.318138 61.507316 67.977207-35.610468 35.606962-71.217866 71.214948-106.826288 106.821911 94.933959 94.964862 189.936482 189.929724 284.871465 284.85877 6.261867-4.503571 1.968922-0.281409 6.471654-6.474458 22.942442-22.236444 25.476252-54.606689 32.373618-93.874017 31.737095-179.829691-69.809739-316.629357-158.621006-391.678634C595.141407 124.298957 556.296135 100.549044 517.450864 76.833923z" fill="rgb(230,0,0)"></path></g></g></svg>