<?xml version="1.0" standalone="no"?><!DOCTYPE svg PUBLIC "-//W3C//DTD SVG 1.1//EN" "http://www.w3.org/Graphics/SVG/1.1/DTD/svg11.dtd"><svg width="200" height="200" viewBox="0 0 200 200" version="1.1" xmlns="http://www.w3.org/2000/svg" xmlns:xlink="http://www.w3.org/1999/xlink"><defs><style type="text/css"><![CDATA[
@font-face { font-family: ifont; src: url("http://at.alicdn.com/t/font_1442373896_4754455.eot?#iefix") format("embedded-opentype"), url("http://at.alicdn.com/t/font_1442373896_4754455.woff") format("woff"), url("http://at.alicdn.com/t/font_1442373896_4754455.ttf") format("truetype"), url("http://at.alicdn.com/t/font_1442373896_4754455.svg#ifont") format("svg"); }

]]></style></defs><g class="transform-group"><g transform="scale(0.1953125, 0.1953125)"><path d="M844.804096 41.782272 176.442368 41.782272c-27.527168 0-49.837056 22.309888-49.837056 49.837056l-0.648192 560.091136 0.648192-7.39328L126.605312 856.97536c0 25.342976 19.211264 45.442048 43.700224 48.59392l0 48.7168c0 24.511488 19.871744 44.379136 44.383232 44.379136l49.937408 0c24.511488 0 44.379136-19.867648 44.379136-44.379136l0-47.481856 407.537664 0 0 47.481856c0 24.511488 19.867648 44.379136 44.379136 44.379136l51.180544 0c24.511488 0 44.383232-19.867648 44.383232-44.379136l0-49.837056c21.714944-5.374976 38.150144-24.09984 38.150144-47.473664L894.636032 693.322752 894.636032 548.389888 894.636032 91.619328C894.636032 64.09216 872.322048 41.782272 844.804096 41.782272zM207.681536 103.9104l605.217792 0c8.465408 0 15.32416 6.862848 15.32416 15.32416 0 8.465408-6.858752 15.32416-15.32416 15.32416L207.681536 134.55872c-8.465408 0-15.32416-6.858752-15.32416-15.32416C192.357376 110.773248 199.216128 103.9104 207.681536 103.9104zM244.063232 834.070528c-28.056576 0-50.799616-22.74304-50.799616-50.799616s22.74304-50.799616 50.799616-50.799616 50.799616 22.74304 50.799616 50.799616C294.862848 811.327488 272.119808 834.070528 244.063232 834.070528zM776.530944 834.070528c-28.056576 0-50.799616-22.74304-50.799616-50.799616s22.74304-50.799616 50.799616-50.799616 50.799616 22.74304 50.799616 50.799616C827.33056 811.327488 804.58752 834.070528 776.530944 834.070528zM830.245888 638.32064c0 24.174592-19.596288 43.77088-43.77088 43.77088l-552.35584 0c-24.174592 0-43.77088-19.596288-43.77088-43.77088L190.348288 225.596416c0-24.174592 19.596288-43.77088 43.77088-43.77088l552.356864 0c24.174592 0 43.77088 19.596288 43.77088 43.77088L830.246912 638.32064 830.245888 638.32064z" fill="rgb(0,123,168)"></path></g></g></svg>