<?xml version="1.0" standalone="no"?><!DOCTYPE svg PUBLIC "-//W3C//DTD SVG 1.1//EN" "http://www.w3.org/Graphics/SVG/1.1/DTD/svg11.dtd"><svg width="200" height="200" viewBox="0 0 200 200" version="1.1" xmlns="http://www.w3.org/2000/svg" xmlns:xlink="http://www.w3.org/1999/xlink"><defs><style type="text/css"><![CDATA[
@font-face { font-family: ifont; src: url("http://at.alicdn.com/t/font_1442373896_4754455.eot?#iefix") format("embedded-opentype"), url("http://at.alicdn.com/t/font_1442373896_4754455.woff") format("woff"), url("http://at.alicdn.com/t/font_1442373896_4754455.ttf") format("truetype"), url("http://at.alicdn.com/t/font_1442373896_4754455.svg#ifont") format("svg"); }

]]></style></defs><g class="transform-group"><g transform="scale(0.1953125, 0.1953125)"><path d="M780.77596 528.856615 511.818933 528.856615 511.818933 363.019764 474.669522 363.357347 474.669522 528.856615 184.456056 528.856615 184.456056 348.380963 185.097463 347.388675 316.411908 145.254553 355.54794 149.604252 224.880016 350.748132 224.880016 488.430609 434.244539 488.430609 434.244539 347.293538 552.242893 347.161574 552.242893 488.430609 740.349954 488.430609 740.349954 351.839648 624.023145 149.532643 663.252268 145.326162 780.77596 349.564547ZM943.011932 918.263049 46.53011 918.263049 46.53011 579.416232l896.497167 0-33.694817 167.00816L943.011932 918.263049zM86.95407 875.795181 899.907772 875.795181l-29.158937-108.022282L242.117179 767.772899l0-41.234158 628.63984-0.476707 29.135409-107.24175L86.95407 618.820284 86.95407 875.795181zM208.907253 345.572891l547.413419 0 0 40.422937-547.413419 0 0-40.422937Z" fill="rgb(168,56,0)"></path></g></g></svg>