<?xml version="1.0" standalone="no"?><!DOCTYPE svg PUBLIC "-//W3C//DTD SVG 1.1//EN" "http://www.w3.org/Graphics/SVG/1.1/DTD/svg11.dtd"><svg width="200" height="200" viewBox="0 0 200 200" version="1.1" xmlns="http://www.w3.org/2000/svg" xmlns:xlink="http://www.w3.org/1999/xlink"><defs><style type="text/css"><![CDATA[
@font-face { font-family: ifont; src: url("http://at.alicdn.com/t/font_1442373896_4754455.eot?#iefix") format("embedded-opentype"), url("http://at.alicdn.com/t/font_1442373896_4754455.woff") format("woff"), url("http://at.alicdn.com/t/font_1442373896_4754455.ttf") format("truetype"), url("http://at.alicdn.com/t/font_1442373896_4754455.svg#ifont") format("svg"); }

]]></style></defs><g class="transform-group"><g transform="scale(0.1953125, 0.1953125)"><path d="M841.349 849.854l53.068 0 0-32.561L131.583 817.293l0 32.561 53.068 0M161.563 477.951l35.542-20.823 35.543 20.823-8.797-40.255 30.786-27.375-40.995-4.038-16.538-37.766-16.515 37.766-40.997 4.038 30.765 27.375L161.563 477.951zM317.713 328.957l35.542-20.822 35.543 20.822-8.818-40.256 30.809-27.375-41.018-4.04-16.518-37.764-16.537 37.764-40.994 4.04 30.786 27.375L317.713 328.957zM477.435 186.76 513 165.938l35.542 20.823-8.818-40.254 30.808-27.376-40.997-4.039-16.536-37.765-16.515 37.765-41.018 4.039 30.787 27.376L477.435 186.76zM637.2 328.957l35.543-20.822 35.521 20.822-8.799-40.256 30.809-27.375-41.019-4.04-16.515-37.764-16.539 37.764-40.993 4.04 30.786 27.375L637.2 328.957zM793.329 477.951l35.564-20.823 35.543 20.823-8.817-40.255 30.785-27.375-40.994-4.038-16.517-37.766-16.537 37.766-40.997 4.038 30.788 27.375L793.329 477.951zM448.196 229.911 448.196 784.22l33.548 0 0-64.622c0-17.908 14.067-32.561 31.257-32.561 17.188 0 31.257 14.653 31.257 32.561l0 64.622 33.549 0L577.807 229.911 448.196 229.911zM544.257 615.39l-62.513 0 0-62.538 62.513 0L544.257 615.39zM544.257 470.097l-62.513 0 0-62.536 62.513 0L544.257 470.097zM544.257 324.2l-62.513 0 0-62.537 62.513 0L544.257 324.2zM135.219 525.319l0 259.239 123.773 0L258.992 525.319 135.219 525.319zM228.386 615.39l-62.538 0 0-62.538 62.538 0L228.386 615.39zM291.551 378.569l0 114.192 0 291.795 123.414 0L414.965 378.569 291.551 378.569zM384.695 615.39l-62.515 0 0-62.538 62.515 0L384.695 615.39zM384.695 470.097l-62.515 0 0-62.536 62.515 0L384.695 470.097zM611.035 378.569l0 405.988 123.413 0L734.448 492.761 734.448 378.569 611.035 378.569zM703.82 615.39l-62.515 0 0-62.538 62.515 0L703.82 615.39zM703.82 470.097l-62.515 0 0-62.536 62.515 0L703.82 470.097zM767.009 525.319l0 259.239 123.752 0L890.761 525.319 767.009 525.319zM860.152 615.39l-62.536 0 0-62.538 62.536 0L860.152 615.39 860.152 615.39z" fill="rbg(245,202,122)"></path></g></g></svg>