<?xml version="1.0" standalone="no"?><!DOCTYPE svg PUBLIC "-//W3C//DTD SVG 1.1//EN" "http://www.w3.org/Graphics/SVG/1.1/DTD/svg11.dtd"><svg width="200" height="200" viewBox="0 0 200 200" version="1.1" xmlns="http://www.w3.org/2000/svg" xmlns:xlink="http://www.w3.org/1999/xlink"><defs><style type="text/css"><![CDATA[
@font-face { font-family: ifont; src: url("http://at.alicdn.com/t/font_1442373896_4754455.eot?#iefix") format("embedded-opentype"), url("http://at.alicdn.com/t/font_1442373896_4754455.woff") format("woff"), url("http://at.alicdn.com/t/font_1442373896_4754455.ttf") format("truetype"), url("http://at.alicdn.com/t/font_1442373896_4754455.svg#ifont") format("svg"); }

]]></style></defs><g class="transform-group"><g transform="scale(0.1953125, 0.1953125)"><path d="M504.333902 0.346901 69.456397 291.236014l882.59648 0L504.333902 0.346901 504.333902 0.346901zM563.60482 531.403932l-48.246841 95.16543c-4.686742 9.193383-8.315386 16.95823-11.192923 22.954805-2.65855-5.995551-5.986341-13.351076-10.083659-21.185508l-51.125401-96.934726-42.201148 0 70.202898 130.821511-56.671721 0 0 34.209126 71.691809 0 0 19.766183-71.691809 0 0 32.078603 71.691809 0 0 59.919694 37.815257 0 0-59.919694 71.021543 0 0-32.078603-71.021543 0L523.793092 696.434569l71.021543 0 0-34.209126-56.541761 0 69.882604-130.821511-44.570101 0L563.60482 531.403932zM504.463862 853.317643c-108.705817 0-196.657962-89.579201-196.657962-199.61634 0-110.355387 87.951121-199.524243 196.657962-199.524243 108.587114 0 196.677405 89.169879 196.677405 199.524243C701.141266 763.768117 613.050975 853.317643 504.463862 853.317643L504.463862 853.317643zM504.463862 427.024653c-123.415844 0-223.409233 101.511975-223.409233 226.676649 0 125.237329 99.992365 226.748281 223.409233 226.748281 123.397425 0 223.450165-101.510952 223.450165-226.748281C727.914026 528.536628 627.861286 427.024653 504.463862 427.024653L504.463862 427.024653zM317.809741 904.803247 427.315784 904.803247l0-11.592013c-42.450834-13.46057-79.925331-37.784558-109.506043-69.90307L317.809741 904.803247 317.809741 904.803247zM585.738933 904.803247l109.556185 0 0-96.624664c-28.290323 35.975353-66.045205 63.826678-109.556185 80.035848L585.738933 904.803247 585.738933 904.803247zM53.567521 306.385039l0 84.613096 33.997302 0 0 513.804089 109.426225 0L196.991048 390.998135l120.818693 0 0 86.812181c29.579689-31.778774 67.054185-56.4425 109.506043-69.464071L427.315784 390.998135l158.453848 0 0 21.904892c43.48028 16.20917 81.235163 44.12087 109.525486 80.346933L695.295118 390.998135l129.223107 0 0 513.804089 109.557208 0L934.075433 390.998135l33.926694 0 0-84.613096L53.587987 306.385039 53.567521 306.385039zM53.567521 1023.652076l914.474514 0L968.042035 920.371828 53.567521 920.371828 53.567521 1023.652076 53.567521 1023.652076zM53.567521 1023.652076" fill="rgb(230,76,0)"></path></g></g></svg>