<?xml version="1.0" standalone="no"?><!DOCTYPE svg PUBLIC "-//W3C//DTD SVG 1.1//EN" "http://www.w3.org/Graphics/SVG/1.1/DTD/svg11.dtd"><svg width="200" height="200" viewBox="0 0 200 200" version="1.1" xmlns="http://www.w3.org/2000/svg" xmlns:xlink="http://www.w3.org/1999/xlink"><defs><style type="text/css"><![CDATA[
@font-face { font-family: ifont; src: url("http://at.alicdn.com/t/font_1442373896_4754455.eot?#iefix") format("embedded-opentype"), url("http://at.alicdn.com/t/font_1442373896_4754455.woff") format("woff"), url("http://at.alicdn.com/t/font_1442373896_4754455.ttf") format("truetype"), url("http://at.alicdn.com/t/font_1442373896_4754455.svg#ifont") format("svg"); }

]]></style></defs><g class="transform-group"><g transform="scale(0.1953125, 0.1953125)"><path d="M597.853855 400.530233l-66.079998 66.079998 88.406492 88.369653 63.805188-63.816444c14.086833 6.418176 29.142737 9.973142 44.322461 9.962909 27.338648 0 54.67832-10.395768 75.487252-31.200606l153.376203-153.380296-33.238009-33.246195-134.430712 134.421502c-4.28049 4.272303-9.861602 6.427386-15.491833 6.404873-5.600555 0-11.233855-2.116197-15.492856-6.384407l-6.252401-6.290263c-4.131087-4.114714-6.401804-9.616008-6.424316-15.484669 0-5.862521 2.293229-11.369955 6.424316-15.487739l134.408199-134.425595-40.612976-40.597627-134.413316 134.421502c-4.26821 4.27128-9.880021 6.414083-15.45397 6.401804-5.633301 0-11.250228-2.112104-15.513322-6.385431l-6.27082-6.300496c-4.131087-4.117784-6.382361-9.601682-6.405897-15.461133 0-5.872754 2.27481-11.387351 6.405897-15.500019l134.413316-134.426619-33.255405-33.243125L622.208543 288.325731c-20.073174 20.082384-31.136138 46.89403-31.136138 75.485205C591.072405 376.585891 593.629647 388.900358 597.853855 400.530233L597.853855 400.530233 597.853855 400.530233zM389.041062 609.369631 220.866828 777.566378c-24.410969 24.411993-24.410969 63.945381 0 88.367607 24.370037 24.407899 63.955614 24.411993 88.366583 0l168.173211-168.1947L389.041062 609.369631 389.041062 609.369631 389.041062 609.369631zM790.75833 779.145339 396.608411 385.002584c10.212596-22.11774 16.051581-46.662763 16.075117-72.617901 0-95.855138-77.707826-173.568081-173.5865-173.572174-95.867418-0.017396-173.585477 77.692477-173.585477 173.572174 0.022513 95.876628 77.740572 173.584454 173.585477 173.577291 24.112164 0.007163 47.053666-4.915963 67.934229-13.809517l395.36049 395.359466c24.406876 24.410969 63.954591 24.394596 88.366583 0C815.169299 843.105047 815.151903 803.556309 790.75833 779.145339L790.75833 779.145339 790.75833 779.145339zM790.75833 779.145339" fill="rgb(245,202,122)"></path></g></g></svg>